<?xml version="1.0" encoding="utf-8"?>
<!-- Generator: Adobe Illustrator 26.5.0, SVG Export Plug-In . SVG Version: 6.00 Build 0)  -->
<svg version="1.1" id="Layer_1" xmlns="http://www.w3.org/2000/svg" xmlns:xlink="http://www.w3.org/1999/xlink" x="0px" y="0px"
	 viewBox="0 0 27.11 25.22" style="enable-background:new 0 0 27.11 25.22;" xml:space="preserve">
<path d="M13.55,5.77c1.77-1.29,3.65-2.42,5.8-3.01c1.32-0.36,2.66-0.49,3.99-0.1c1.6,0.47,2.67,1.83,2.84,3.49
	c0.23,2.27-0.47,4.31-1.56,6.22c-0.75,1.3-1.66,2.53-2.59,3.72c-0.42,0.53-0.55,1-0.43,1.64c0.1,0.56,0.12,1.16,0.03,1.72
	c-0.43,2.86-2.69,4.32-5.83,3.61c-1.5-0.34-2.88-0.49-4.39-0.02c-0.87,0.27-1.93,0.2-2.86,0.02c-2.27-0.45-3.56-2.6-3.14-5.14
	c0.13-0.8,0-1.36-0.54-2c-1.86-2.18-3.37-4.57-3.9-7.44C0.82,7.58,0.8,6.6,0.94,5.7c0.3-1.84,1.8-3.06,3.69-3.22
	c2.35-0.19,4.44,0.62,6.43,1.73C11.91,4.68,12.7,5.23,13.55,5.77z M13.52,8.35c-2.37,2.13-4.35,4.48-5.53,7.43
	c-0.08,0.21,0,0.63,0.16,0.75c1.62,1.22,3.26,2.41,4.93,3.56c0.22,0.15,0.73,0.13,0.95-0.02c1.65-1.13,3.26-2.31,4.86-3.51
	c0.16-0.12,0.24-0.55,0.16-0.75C17.86,12.87,15.9,10.49,13.52,8.35z M20.74,14.62c1.8-2.31,3.32-4.6,3.54-7.5
	c0.13-1.65-0.72-2.66-2.3-2.7c-2.63-0.07-4.75,1.21-6.89,2.67C17.44,9.29,19.37,11.67,20.74,14.62z M11.99,7.04
	c-1.07-0.61-2-1.2-2.98-1.68c-1.3-0.63-2.66-1.08-4.14-0.93C3.63,4.55,2.92,5.15,2.84,6.4c-0.22,3.26,1.58,5.68,3.46,8.22
	C7.68,11.64,9.59,9.28,11.99,7.04z M10.73,21.13c-1.15-0.86-2.24-1.66-3.36-2.5C7.29,20.65,8.67,21.66,10.73,21.13z M19.65,18.66
	c-1.14,0.85-2.19,1.65-3.28,2.47C18.5,21.54,19.77,20.59,19.65,18.66z"/>
</svg>
